<?xml version="1.0" standalone="no"?>
<!DOCTYPE svg PUBLIC "-//W3C//DTD SVG 20010904//EN"
 "http://www.w3.org/TR/2001/REC-SVG-20010904/DTD/svg10.dtd">
<svg version="1.0" xmlns="http://www.w3.org/2000/svg"
 width="229.000000pt" height="504.000000pt" viewBox="0 0 229.000000 504.000000"
 preserveAspectRatio="xMidYMid meet">

<g transform="translate(0.000000,504.000000) scale(0.100000,-0.100000)"
 >
<path d="M60 2536 c0 -1311 2 -2391 6 -2399 6 -17 5 -17 690 113 259 50 474
90 477 90 4 0 8 368 9 818 l3 817 371 3 371 2 7 278 c3 152 9 411 12 574 l7
298 -384 2 -384 3 0 305 0 305 441 3 441 2 6 53 c4 28 22 234 42 457 19 223
40 446 45 497 6 51 10 108 10 128 l0 35 -1085 0 -1085 0 0 -2384z"/>
</g>
</svg>
